<svg width="60" height="60" viewBox="0 0 60 60" fill="none" xmlns="http://www.w3.org/2000/svg">
<rect width="60" height="60" rx="20" fill="#FFF5D9"/>
<g clip-path="url(#clip0_4414_2)">
<path d="M39.3389 34.1611C37.9774 32.7997 36.3569 31.7918 34.5888 31.1817C36.4825 29.8775 37.7266 27.6947 37.7266 25.2266C37.7266 21.2418 34.4847 18 30.5 18C26.5153 18 23.2734 21.2418 23.2734 25.2266C23.2734 27.6947 24.5175 29.8775 26.4112 31.1817C24.6432 31.7918 23.0227 32.7997 21.6612 34.1611C19.3002 36.5221 18 39.6611 18 43H19.9531C19.9531 37.1844 24.6844 32.4531 30.5 32.4531C36.3156 32.4531 41.0469 37.1844 41.0469 43H43C43 39.6611 41.6998 36.5221 39.3389 34.1611ZM30.5 30.5C27.5922 30.5 25.2266 28.1344 25.2266 25.2266C25.2266 22.3187 27.5922 19.9531 30.5 19.9531C33.4078 19.9531 35.7734 22.3187 35.7734 25.2266C35.7734 28.1344 33.4078 30.5 30.5 30.5Z" fill="#FFBB38"/>
</g>
<defs>
<clipPath id="clip0_4414_2">
<rect width="25" height="25" fill="white" transform="translate(18 18)"/>
</clipPath>
</defs>
</svg>
